<?xml version="1.0" standalone="no"?>
<!DOCTYPE svg PUBLIC "-//W3C//DTD SVG 20010904//EN"
 "http://www.w3.org/TR/2001/REC-SVG-20010904/DTD/svg10.dtd">
<svg version="1.0" xmlns="http://www.w3.org/2000/svg"
 width="700.000000pt" height="700.000000pt" viewBox="0 0 700.000000 700.000000"
 preserveAspectRatio="xMidYMid meet">
<metadata>
Created by potrace 1.11, written by Peter Selinger 2001-2013
</metadata>
<g transform="translate(0.000000,700.000000) scale(0.100000,-0.100000)"
fill="#000000" stroke="none">
<path d="M1629 6184 c-220 -47 -390 -199 -466 -416 -36 -102 -41 -253 -12
-359 50 -180 159 -316 323 -403 130 -69 290 -87 441 -50 223 55 408 244 460
468 39 168 7 348 -88 491 -78 118 -197 208 -336 255 -82 27 -231 34 -322 14z"/>
<path d="M5101 6185 c-109 -24 -223 -88 -308 -173 -127 -127 -185 -270 -184
-452 1 -168 61 -310 181 -431 87 -88 172 -139 280 -168 208 -56 406 -13 572
123 381 314 261 930 -212 1086 -83 27 -239 34 -329 15z"/>
<path d="M3420 4137 c-3 -3 -32 -7 -65 -11 -33 -3 -73 -8 -90 -11 -16 -3 -52
-10 -80 -15 -270 -51 -455 -117 -539 -190 -78 -69 -81 -200 -10 -458 58 -214
150 -444 215 -538 106 -155 359 -431 453 -495 27 -18 36 -31 36 -54 4 -200 0
-1968 -4 -1972 -11 -11 -396 134 -586 220 -30 13 -89 39 -130 57 -78 34 -339
156 -542 254 -153 73 -206 75 -270 11 -51 -51 -59 -130 -20 -197 14 -25 57
-50 217 -128 192 -94 272 -131 380 -180 28 -12 84 -38 125 -57 41 -19 96 -43
121 -53 26 -10 66 -28 90 -39 93 -42 379 -151 489 -185 270 -84 355 -81 674
31 100 35 450 174 484 192 9 5 105 49 212 97 107 48 278 127 379 175 101 49
187 89 191 89 16 0 78 79 84 106 16 81 -22 155 -94 185 -50 21 -93 12 -205
-42 -60 -29 -112 -53 -115 -54 -3 0 -63 -29 -133 -63 -71 -34 -130 -62 -132
-62 -2 0 -45 -20 -97 -44 -52 -24 -154 -69 -228 -101 -74 -31 -144 -60 -155
-65 -124 -56 -402 -156 -411 -148 -2 3 -4 454 -4 1003 l-1 998 23 16 c99 69
287 267 419 441 87 115 139 222 212 440 68 204 100 349 100 458 1 75 -2 86
-29 125 -50 71 -169 131 -364 181 -98 26 -214 50 -285 61 -23 3 -52 8 -65 10
-38 8 -244 18 -250 12z"/>
</g>
</svg>
